<svg width="172" height="40" viewBox="0 0 172 40" fill="none" xmlns="http://www.w3.org/2000/svg">
    <path d="M13.4169 11.5609H11.6674V9.72081H13.4169V11.5609ZM7.82705 10.4251L7.3028 9.51777L6.77856 10.4251L7.3028 11.3325L7.82705 10.4251ZM13.4169 6.78934H11.6674V8.62944H13.4169V6.78934ZM25.4928 21.1294H0V0H25.4928V21.1294ZM8.87553 4.97462H16.2088L16.2027 2.79188H15.1542V3.88959H14.1057V2.78553H13.0573V3.88325H12.0088V2.78553H10.9603V3.88325H9.91182V2.78553H8.86334V4.97462H8.87553ZM13.4169 13.5596V15.1459H14.4654V5.69797H10.6189V15.1459H11.6674V13.5596C11.6674 13.0584 12.0576 12.6459 12.5452 12.6459C13.0329 12.6459 13.4169 13.0584 13.4169 13.5596ZM4.68769 7.88706H9.91792V6.79569V5.69797H8.86943V6.79569H7.82095V5.69797H6.77247V6.79569H5.73618V5.69797H4.68769V7.88706ZM5.73618 10.4251L4.68769 12.2398H5.73618L6.26042 11.3325L6.78466 12.2398H7.83314L8.35738 11.3325L8.88162 12.2398H9.93011L8.88162 10.4251L9.93011 8.61041H8.88162L8.35129 9.51777L7.82705 8.61041H6.77856L6.26042 9.51777L5.73618 8.61041H4.68769L5.73618 10.4251ZM4.68769 15.1459H9.91792V14.0546V12.9569H8.86943V14.0546H7.82095V12.9569H6.77247V14.0546H5.73618V12.9569H4.68769V15.1459ZM17.3243 15.8756H15.9894L15.3005 16.9734H9.78381L9.09498 15.8756H7.75999L9.02183 18.0584H16.0625L17.3243 15.8756ZM20.3906 12.9632H19.3421V14.0609H18.2936V12.9632H17.2512V14.0609H16.2027V12.9632H15.1542V15.1459H20.3845V14.0546V12.9632H20.3906ZM19.3482 10.4251L20.3966 8.61041H19.3482L18.8239 9.51777L18.2997 8.61041H17.2512L16.727 9.51777L16.2027 8.61041H15.1542L16.2027 10.4251L15.1542 12.2398H16.2027L16.727 11.3325L17.2512 12.2398H18.2997L18.8239 11.3325L19.3482 12.2398H20.3966L19.3482 10.4251ZM20.3906 6.79569V5.69797H19.3421V6.79569H18.2936V5.69797H17.2512V6.79569H16.2027V5.69797H15.1542V7.88071H20.3845V6.79569H20.3906ZM17.2512 10.4251L17.7754 11.3325L18.2997 10.4251L17.7754 9.51777L17.2512 10.4251ZM25.4928 22.1891V26.7259C25.4928 34.0546 19.7871 39.9937 12.7464 39.9937C5.7057 40 0 34.0546 0 26.7322V22.1954H25.4928V22.1891ZM16.794 25.1269H9.77162L8.73532 26.3325V36.3515H15.0872V26.9416H9.95449L10.5824 26.2183H15.8613V35.4251L16.8001 34.3782L16.794 25.1269ZM38.233 17.6142V0H40.5556V8.29315H40.6958L47.139 0H50.0224L43.0609 8.54061L50.6563 17.6142H47.706L40.6958 9.09898H40.5556V17.6142H38.233ZM54.9417 4.95558V17.6206H52.7411V0H54.7101L54.9417 4.95558ZM67.6881 17.6142H65.4631C65.5241 16.948 65.5546 16.4277 65.5546 16.0533H65.4387C64.311 17.3033 62.9943 17.9315 61.4764 17.9315C60.3365 17.9315 59.4343 17.5888 58.7821 16.8972C58.1237 16.2056 57.8007 15.3046 57.8007 14.2005C57.8007 13.0647 58.1786 12.1256 58.9345 11.3959C59.6904 10.6662 60.6901 10.2919 61.9214 10.2728C63.0614 10.2538 64.25 10.4378 65.4814 10.8122V9.49239C65.4814 8.61675 65.2559 7.93782 64.8109 7.46827C64.3659 6.99873 63.7197 6.76396 62.8785 6.76396C62.0677 6.76396 61.4399 6.97335 61.001 7.39848C60.5621 7.8236 60.3609 8.33122 60.3914 8.93401H58.0323C58.2639 7.79822 58.8004 6.85914 59.6355 6.12944C60.4706 5.39975 61.5557 5.03173 62.8846 5.03173C64.2744 5.03173 65.4022 5.40609 66.2617 6.15482C67.1212 6.90355 67.5479 8.0203 67.5479 9.49873V15.5964C67.5479 16.5038 67.5967 17.1764 67.6881 17.6142ZM65.4387 14.3718V12.2018C64.2805 11.9607 63.2564 11.8464 62.3664 11.8591C61.6166 11.8782 61.0254 12.0876 60.5986 12.4937C60.1658 12.8997 59.9525 13.4264 59.9525 14.0799C59.9525 14.7462 60.1476 15.2665 60.5377 15.6282C60.9278 15.9962 61.4886 16.1802 62.2262 16.1802C62.848 16.1802 63.4576 15.9898 64.0428 15.6091C64.6341 15.2221 65.0974 14.8096 65.4387 14.3718ZM70.9006 2.55076C70.6324 2.28426 70.5044 1.92893 70.5044 1.49112C70.5044 1.0533 70.6385 0.691624 70.9128 0.418782C71.1871 0.139594 71.5285 0 71.9308 0C72.3514 0 72.6989 0.139594 72.9732 0.412437C73.2475 0.691624 73.3816 1.04695 73.3816 1.48477C73.3816 1.92259 73.2475 2.27792 72.9732 2.54442C72.6989 2.81091 72.3514 2.94416 71.9308 2.94416C71.5102 2.95051 71.1688 2.81726 70.9006 2.55076ZM70.8335 17.6142V5.36802H73.0341V17.6142H70.8335ZM78.5935 17.6142V22.3223H76.3929V7.17005C76.3929 6.61802 76.3746 6.01523 76.3442 5.36167H78.4046C78.4229 5.67259 78.4289 6.28173 78.4289 7.18909H78.5692C79.4287 5.82487 80.593 5.13959 82.0621 5.13959C83.6226 5.13959 84.854 5.75508 85.7439 6.99239C86.6339 8.2297 87.0789 9.73985 87.0789 11.5292C87.0789 13.3503 86.64 14.8731 85.7561 16.0914C84.8722 17.3096 83.6836 17.9188 82.184 17.9188C80.6844 17.9188 79.5262 17.2589 78.7155 15.9454H78.5752C78.5874 16.5228 78.5935 17.0812 78.5935 17.6142ZM84.7869 11.5419C84.7869 10.1269 84.5126 9.00381 83.964 8.17259C83.4153 7.34137 82.6168 6.92893 81.5744 6.92893C80.8063 6.92893 80.1358 7.26523 79.5445 7.93147C78.9593 8.59772 78.6423 9.28299 78.5935 9.98096V12.9315C78.624 13.6802 78.9288 14.4099 79.5079 15.1142C80.087 15.8249 80.8063 16.1739 81.6658 16.1739C82.696 16.1739 83.4763 15.736 84.0005 14.8668C84.5248 14.0038 84.7869 12.8934 84.7869 11.5419ZM99.8985 11.8084H91.5045C91.5167 13.1282 91.8215 14.1878 92.4189 14.9937C93.0102 15.7995 93.8575 16.1992 94.9486 16.1992C95.668 16.1992 96.2836 15.9772 96.7896 15.5393C97.2955 15.1015 97.6186 14.5305 97.7649 13.8325H99.9228C99.7826 14.9365 99.2584 15.9074 98.3501 16.7386C97.4418 17.5698 96.2714 17.9822 94.8328 17.9822C93.1748 17.9822 91.8459 17.3794 90.834 16.1739C89.8281 14.9683 89.3222 13.3756 89.3222 11.3896C89.3222 9.61929 89.8159 8.11548 90.7974 6.89086C91.7849 5.6599 93.0772 5.05076 94.6865 5.05076C95.5156 5.05076 96.2532 5.19036 96.8993 5.47589C97.5455 5.76142 98.0697 6.13579 98.472 6.59898C98.8683 7.06218 99.1913 7.59518 99.4352 8.19797C99.679 8.80076 99.8314 9.40355 99.8924 10.0063C99.9594 10.6028 99.9594 11.2056 99.8985 11.8084ZM91.602 10.1523L97.7222 10.1015C97.7222 9.77792 97.6796 9.43528 97.5942 9.07995C97.5089 8.72462 97.3626 8.3566 97.1492 7.98223C96.9359 7.60787 96.625 7.3033 96.2105 7.06853C95.796 6.83376 95.3083 6.7132 94.7475 6.7132C93.9367 6.7132 93.2357 7.01142 92.6505 7.61421C92.0592 8.21701 91.7118 9.06091 91.602 10.1523ZM93.7478 3.00127C93.4734 2.72208 93.3393 2.36041 93.3393 1.90355C93.3393 1.4467 93.4734 1.07868 93.7478 0.793147C94.0221 0.507614 94.3756 0.36802 94.8145 0.36802C95.2534 0.36802 95.6131 0.513959 95.8935 0.793147C96.1739 1.07868 96.3141 1.4467 96.3141 1.90355C96.3141 2.36041 96.1739 2.72208 95.8935 3.00127C95.6131 3.28046 95.2534 3.41371 94.8145 3.41371C94.3756 3.41371 94.016 3.28046 93.7478 3.00127ZM110.688 5.36802V0H112.889V15.8122C112.889 16.6878 112.901 17.2906 112.937 17.6206H110.944C110.926 17.2779 110.92 16.6751 110.92 15.8122H110.78C109.938 17.1637 108.774 17.8363 107.287 17.8363C105.708 17.8363 104.464 17.2208 103.562 15.9835C102.654 14.7462 102.203 13.236 102.203 11.4467C102.203 9.62564 102.642 8.10279 103.525 6.88452C104.409 5.66624 105.598 5.05711 107.098 5.05711C108.597 5.05711 109.755 5.71701 110.566 7.03046H110.706C110.694 6.47208 110.688 5.92005 110.688 5.36802ZM104.501 11.4404C104.501 12.8553 104.781 13.9784 105.336 14.8096C105.891 15.6409 106.689 16.0533 107.738 16.0533C108.506 16.0533 109.176 15.7234 109.755 15.0635C110.335 14.4036 110.645 13.7246 110.694 13.0267V10.0508C110.664 9.30203 110.359 8.57233 109.78 7.86802C109.201 7.15736 108.481 6.80838 107.622 6.80838C106.592 6.80838 105.811 7.24619 105.287 8.11548C104.763 8.98477 104.501 10.0952 104.501 11.4404ZM115.638 11.4911C115.638 10.9074 115.711 10.3173 115.863 9.7335C116.01 9.14975 116.241 8.57234 116.552 8.00127C116.863 7.4302 117.241 6.92893 117.692 6.50381C118.137 6.07234 118.692 5.72335 119.356 5.45685C120.021 5.19036 120.74 5.05711 121.526 5.05711C122.477 5.05711 123.343 5.26015 124.117 5.66624C124.891 6.07234 125.501 6.60533 125.946 7.26523C126.391 7.92513 126.732 8.61675 126.964 9.35279C127.196 10.0825 127.317 10.8058 127.317 11.5228C127.317 13.2614 126.799 14.7843 125.757 16.085C124.715 17.3858 123.306 18.0393 121.526 18.0393C119.728 18.0393 118.302 17.3985 117.235 16.1231C116.168 14.8414 115.638 13.2995 115.638 11.4911ZM117.936 11.4911C117.936 12.8553 118.241 13.9975 118.85 14.9175C119.46 15.8376 120.344 16.2944 121.496 16.2944C122.484 16.2944 123.313 15.882 123.995 15.0635C124.678 14.2449 125.013 13.0393 125.013 11.4657C125.013 9.98731 124.678 8.83249 124.007 8.01396C123.337 7.19543 122.502 6.78299 121.502 6.78299C120.563 6.78299 119.734 7.15102 119.015 7.8934C118.296 8.63579 117.936 9.83502 117.936 11.4911ZM129.402 13.9784H131.676C131.676 14.5495 131.877 15.0635 132.273 15.514C132.67 15.9708 133.255 16.1992 134.017 16.1992C134.675 16.1992 135.206 16.0343 135.608 15.698C136.016 15.368 136.217 14.9302 136.217 14.3909C136.217 13.8896 136.01 13.4772 135.596 13.1599C135.181 12.8426 134.547 12.5698 133.688 12.3414C130.89 11.6244 129.494 10.3807 129.494 8.61041C129.494 7.51904 129.89 6.65609 130.688 6.02157C131.487 5.38706 132.523 5.0698 133.803 5.0698C134.962 5.0698 135.937 5.3934 136.736 6.04695C137.534 6.70051 137.961 7.59518 138.028 8.73096H135.803C135.772 8.12817 135.559 7.65228 135.169 7.29061C134.779 6.93528 134.303 6.75127 133.736 6.75127C133.176 6.75127 132.688 6.89086 132.286 7.16371C131.877 7.44289 131.676 7.86168 131.676 8.43274C131.676 8.92132 131.902 9.32107 132.347 9.62564C132.792 9.93655 133.468 10.1967 134.376 10.4061C137.126 11.0723 138.503 12.3223 138.503 14.1624C138.503 15.2982 138.071 16.2119 137.211 16.8972C136.352 17.5825 135.26 17.9251 133.931 17.9251C132.731 17.9251 131.688 17.5888 130.817 16.9099C129.933 16.2437 129.463 15.2665 129.402 13.9784ZM45.9443 27.3858H48.218V37.5381C48.218 38.3503 48.2729 39.0482 48.3826 39.6383H46.1089C46.0601 39.1371 46.054 38.4264 46.0845 37.5127H45.9443C45.8041 37.7728 45.6151 38.052 45.3713 38.3566C45.1274 38.6548 44.7068 38.9721 44.1033 39.3084C43.4998 39.6383 42.8415 39.8096 42.1222 39.8096C41.6833 39.8096 41.2505 39.7398 40.8238 39.6003C40.391 39.4607 39.9704 39.2322 39.5436 38.9023C39.123 38.5787 38.7756 38.0964 38.5135 37.4619C38.2452 36.8274 38.1172 36.0723 38.1172 35.1904V27.3858H40.3666V35.2157C40.3666 36.0596 40.5556 36.7259 40.9274 37.2145C41.3053 37.703 41.854 37.9442 42.5916 37.9442C43.3901 37.9442 44.0972 37.6142 44.7251 36.9416C45.353 36.2754 45.7553 35.4124 45.9443 34.3528V27.3858ZM51.6256 39.632V29.4797C51.6256 28.6675 51.589 27.9695 51.5098 27.3794H53.7835V29.4797H53.9237C54.0822 29.2005 54.2895 28.9086 54.5577 28.6041C54.8259 28.2931 55.2465 27.9759 55.8378 27.6396C56.423 27.3033 57.0509 27.1383 57.7275 27.1383C58.1359 27.1383 58.5382 27.2018 58.9467 27.335C59.3551 27.4683 59.7696 27.684 60.1902 27.9949C60.6108 28.3058 60.9583 28.769 61.2204 29.3972C61.4886 30.0254 61.6166 30.7741 61.6166 31.6561V39.632H59.3673V31.6053C59.3673 30.7614 59.1905 30.1015 58.8309 29.632C58.4712 29.1624 57.9652 28.9213 57.3069 28.9213C56.5083 28.9213 55.7951 29.2576 55.1612 29.9365C54.5272 30.6091 54.0944 31.4721 53.8628 32.5127V39.6383H51.6256V39.632ZM64.9145 24.5685C64.6463 24.302 64.5183 23.9467 64.5183 23.5089C64.5183 23.0711 64.6524 22.7094 64.9267 22.4365C65.201 22.1574 65.5424 22.0241 65.9447 22.0241C66.3653 22.0241 66.7128 22.1637 66.9871 22.4365C67.2614 22.7157 67.3955 23.0711 67.3955 23.5089C67.3955 23.9467 67.2614 24.302 66.9871 24.5685C66.7128 24.835 66.3653 24.9683 65.9447 24.9683C65.5241 24.9683 65.1766 24.835 64.9145 24.5685ZM64.8413 39.632V27.3858H67.0419V39.632H64.8413ZM73.5645 39.632L69.2486 27.3858H71.6138L74.8507 37.3921H74.9909L77.9413 27.3858H80.1906L76.2527 39.632H73.5645ZM92.0105 33.8261H83.6165C83.6287 35.1459 83.9335 36.2056 84.5309 37.0114C85.1222 37.8173 85.9695 38.217 87.0606 38.217C87.78 38.217 88.3895 37.9949 88.9016 37.5571C89.4075 37.1193 89.7306 36.5482 89.8769 35.8503H92.0348C91.8946 36.9543 91.3704 37.9251 90.4621 38.7563C89.5538 39.5876 88.3834 40 86.9448 40C85.2868 40 83.9579 39.3972 82.946 38.1916C81.9402 36.986 81.4342 35.3934 81.4342 33.4074C81.4342 31.6371 81.9279 30.1332 82.9094 28.9086C83.8969 27.6777 85.1892 27.0685 86.7985 27.0685C87.6275 27.0685 88.3652 27.2081 89.0113 27.4937C89.6575 27.7792 90.1817 28.1536 90.584 28.6168C90.9803 29.0799 91.3033 29.6129 91.5472 30.2157C91.791 30.8185 91.9434 31.4213 92.0043 32.0241C92.0714 32.6206 92.0714 33.2234 92.0105 33.8261ZM83.714 32.1637L89.8342 32.1129C89.8342 31.7893 89.7916 31.4467 89.7062 31.0914C89.6209 30.736 89.4746 30.368 89.2612 29.9937C89.0479 29.6193 88.737 29.3147 88.3225 29.08C87.908 28.8452 87.4203 28.7246 86.8595 28.7246C86.0487 28.7246 85.3477 29.0228 84.7625 29.6256C84.1712 30.2284 83.8238 31.0787 83.714 32.1637ZM94.8511 39.632V30.5774C94.8511 29.2957 94.8023 28.2297 94.7109 27.3794H96.8201L96.9359 30.5774H97.0761C97.2955 29.7018 97.7223 28.915 98.3562 28.2234C98.9902 27.5317 99.7034 27.1891 100.502 27.1891C101.032 27.1891 101.532 27.3033 102.002 27.5317V29.632C101.593 29.4226 101.16 29.3147 100.691 29.3147C99.6302 29.3147 98.7768 29.7843 98.1368 30.7297C97.4967 31.6751 97.1431 32.8299 97.0822 34.1942V39.632H94.8511ZM103.66 35.9962H105.933C105.933 36.5673 106.134 37.0812 106.531 37.5317C106.927 37.9886 107.512 38.217 108.274 38.217C108.932 38.217 109.463 38.052 109.865 37.7157C110.274 37.3858 110.475 36.948 110.475 36.4086C110.475 35.9074 110.267 35.4949 109.853 35.1777C109.438 34.8604 108.804 34.5876 107.945 34.3591C105.147 33.6421 103.751 32.3985 103.751 30.6282C103.751 29.5368 104.147 28.6739 104.946 28.0393C105.744 27.4048 106.781 27.0876 108.061 27.0876C109.219 27.0876 110.194 27.4112 110.993 28.0647C111.791 28.7183 112.218 29.6129 112.285 30.7487H110.06C110.03 30.1459 109.816 29.67 109.426 29.3084C109.036 28.953 108.561 28.769 107.994 28.769C107.433 28.769 106.945 28.9086 106.543 29.1815C106.134 29.4607 105.933 29.8794 105.933 30.4505C105.933 30.9391 106.159 31.3388 106.604 31.6434C107.049 31.9543 107.726 32.2145 108.634 32.4239C111.383 33.0901 112.761 34.3401 112.761 36.1802C112.761 37.316 112.328 38.2297 111.468 38.915C110.609 39.6003 109.518 39.9429 108.189 39.9429C106.988 39.9429 105.946 39.6066 105.074 38.9277C104.19 38.2614 103.721 37.2843 103.66 35.9962ZM115.479 24.5685C115.211 24.302 115.083 23.9467 115.083 23.5089C115.083 23.0711 115.217 22.7094 115.492 22.4365C115.766 22.1574 116.107 22.0241 116.51 22.0241C116.93 22.0241 117.278 22.1637 117.552 22.4365C117.826 22.7157 117.96 23.0711 117.96 23.5089C117.96 23.9467 117.826 24.302 117.552 24.5685C117.278 24.835 116.93 24.9683 116.51 24.9683C116.089 24.9683 115.742 24.835 115.479 24.5685ZM115.406 39.632V27.3858H117.607V39.632H115.406ZM119.82 29.1434V27.3858H121.74L122.136 23.7246H123.873V27.3858H127.202V29.1434H123.873V36.047C123.873 37.2208 124.41 37.8046 125.489 37.8046C126.08 37.8046 126.653 37.684 127.202 37.4365V39.2449C126.653 39.651 126.001 39.8541 125.233 39.8541C124.105 39.8541 123.239 39.5178 122.618 38.8515C122.002 38.1853 121.691 37.2589 121.691 36.0723V29.1434H119.82ZM139.32 33.8261H130.926C130.938 35.1459 131.243 36.2056 131.841 37.0114C132.432 37.8173 133.279 38.217 134.37 38.217C135.09 38.217 135.705 37.9949 136.211 37.5571C136.717 37.1193 137.04 36.5482 137.187 35.8503H139.345C139.204 36.9543 138.68 37.9251 137.772 38.7563C136.864 39.5876 135.693 40 134.255 40C132.596 40 131.268 39.3972 130.256 38.1916C129.25 36.986 128.744 35.3934 128.744 33.4074C128.744 31.6371 129.238 30.1332 130.219 28.9086C131.207 27.6777 132.499 27.0685 134.108 27.0685C134.937 27.0685 135.675 27.2081 136.321 27.4937C136.967 27.7792 137.491 28.1536 137.894 28.6168C138.29 29.0799 138.613 29.6129 138.857 30.2157C139.101 30.8185 139.253 31.4213 139.314 32.0241C139.381 32.6206 139.381 33.2234 139.32 33.8261ZM131.024 32.1637L137.144 32.1129C137.144 31.7893 137.101 31.4467 137.016 31.0914C136.931 30.736 136.784 30.368 136.571 29.9937C136.358 29.6193 136.047 29.3147 135.632 29.08C135.218 28.8452 134.73 28.7246 134.169 28.7246C133.358 28.7246 132.657 29.0228 132.072 29.6256C131.481 30.2284 131.133 31.0787 131.024 32.1637ZM140.814 29.1434V27.3858H142.734L143.13 23.7246H144.867V27.3858H148.196V29.1434H144.867V36.047C144.867 37.2208 145.404 37.8046 146.483 37.8046C147.074 37.8046 147.647 37.684 148.196 37.4365V39.2449C147.647 39.651 146.995 39.8541 146.227 39.8541C145.099 39.8541 144.233 39.5178 143.612 38.8515C142.996 38.1853 142.685 37.2589 142.685 36.0723V29.1434H140.814ZM160.034 39.632H157.809C157.87 38.9657 157.9 38.4454 157.9 38.0711H157.784C156.657 39.3211 155.34 39.9492 153.822 39.9492C152.682 39.9492 151.78 39.6066 151.128 38.915C150.469 38.2234 150.146 37.3223 150.146 36.2183C150.146 35.0825 150.524 34.1434 151.28 33.4137C152.036 32.684 153.036 32.3096 154.267 32.2906C155.407 32.2716 156.596 32.4556 157.827 32.83V31.5102C157.827 30.6345 157.602 29.9556 157.157 29.486C156.712 29.0165 156.065 28.7817 155.224 28.7817C154.413 28.7817 153.786 28.9911 153.347 29.4162C152.908 29.8414 152.707 30.349 152.737 30.9518H150.372C150.604 29.816 151.14 28.8769 151.975 28.1472C152.81 27.4175 153.895 27.0495 155.224 27.0495C156.614 27.0495 157.742 27.4239 158.601 28.1726C159.461 28.9213 159.888 30.0381 159.888 31.5165V37.6142C159.894 38.5216 159.942 39.1942 160.034 39.632ZM157.784 36.3896V34.2195C156.626 33.9784 155.602 33.8642 154.712 33.8769C153.962 33.8959 153.371 34.1053 152.944 34.5114C152.512 34.9175 152.298 35.4442 152.298 36.0977C152.298 36.764 152.493 37.2843 152.883 37.6459C153.274 38.014 153.834 38.198 154.572 38.198C155.194 38.198 155.803 38.0076 156.389 37.6269C156.98 37.2398 157.443 36.8274 157.784 36.3896ZM162.606 35.9962H164.88C164.88 36.5673 165.081 37.0812 165.477 37.5317C165.874 37.9886 166.459 38.217 167.221 38.217C167.879 38.217 168.409 38.052 168.812 37.7157C169.22 37.3858 169.421 36.948 169.421 36.4086C169.421 35.9074 169.214 35.4949 168.8 35.1777C168.385 34.8604 167.751 34.5876 166.892 34.3591C164.094 33.6421 162.698 32.3985 162.698 30.6282C162.698 29.5368 163.094 28.6739 163.892 28.0393C164.691 27.4048 165.727 27.0876 167.007 27.0876C168.166 27.0876 169.141 27.4112 169.94 28.0647C170.738 28.7183 171.165 29.6129 171.232 30.7487H169.007C168.976 30.1459 168.763 29.67 168.373 29.3084C167.983 28.953 167.507 28.769 166.94 28.769C166.38 28.769 165.892 28.9086 165.49 29.1815C165.081 29.4607 164.88 29.8794 164.88 30.4505C164.88 30.9391 165.106 31.3388 165.551 31.6434C165.996 31.9543 166.672 32.2145 167.58 32.4239C170.33 33.0901 171.707 34.3401 171.707 36.1802C171.707 37.316 171.275 38.2297 170.415 38.915C169.556 39.6003 168.464 39.9429 167.135 39.9429C165.935 39.9429 164.892 39.6066 164.02 38.9277C163.137 38.2614 162.667 37.2843 162.606 35.9962Z" fill="#5046e5"/>
</svg>
